<svg id="Capa_1" enable-background="new 0 0 512 512" height="512" viewBox="0 0 512 512" width="512" xmlns="http://www.w3.org/2000/svg"><g><g><path d="m338.235 421.906c-1.678-2.107-3.445-4.136-5.274-6.107-14.708-15.854-34.143-27.19-56.028-31.656-6.603-1.347-13.601-2.106-20.934-2.106-28.629 0-56.455 11.687-76.948 33.767-1.83 1.972-3.608 3.993-5.286 6.101-12.702 15.95-20.952 35.656-22.816 57.18-.266 3.075-.402 6.187-.402 9.33v16.085h41.902 63.551 105.454v-16.084c-.001-25.148-8.702-48.281-23.219-66.51z" fill="#8288cb"/><path d="m255.999 382.038c-28.629 0-56.455 11.687-76.948 33.767-1.83 1.972-3.608 3.993-5.286 6.101-12.702 15.95-20.952 35.656-22.816 57.18-.266 3.075-.402 6.187-.402 9.33v16.084h41.902v-16.084c0-13.263 2.444-25.967 6.872-37.698 12.716-33.683 41.923-59.281 77.612-66.574-6.603-1.348-13.601-2.106-20.934-2.106z" fill="#676fb2"/></g><g><path d="m276.933 384.144c-6.603-1.347-13.601-2.106-20.934-2.106-28.629 0-56.455 11.687-76.948 33.767 4.523 12.771 11.383 24.599 20.27 34.913 1.4 1.625 2.838 3.221 4.337 4.768 11.782 12.158 26.443 21.547 42.399 27.152 6.435 2.261 13.449 2.261 19.885 0 15.958-5.606 30.625-14.998 42.412-27.162 11.018-11.37 19.372-24.898 24.607-39.678-14.708-15.852-34.143-27.189-56.028-31.654z" fill="#88c5fd"/><path d="m276.933 384.144c-6.603-1.347-13.601-2.106-20.934-2.106-28.629 0-56.455 11.687-76.948 33.767 4.523 12.771 11.383 24.599 20.27 34.913 12.716-33.683 41.922-59.281 77.612-66.574z" fill="#64b3fb"/></g><g><path d="m256 365.89-51.536 29.754c3.151 14.931 10.458 28.357 20.738 38.965 8.465 8.735 18.943 15.561 30.798 19.726 11.858-4.166 22.342-10.995 30.81-19.734 10.28-10.608 17.587-24.032 20.738-38.96z" fill="#efedff"/><path d="m204.464 395.644c3.151 14.931 10.458 28.357 20.738 38.965 8.465 8.735 18.943 15.561 30.798 19.726v-88.445z" fill="#d4d4ff"/><path d="m256 454.334c11.858-4.166 22.342-10.995 30.81-19.734-8.465-8.735-18.943-15.561-30.798-19.726-11.858 4.166-22.342 10.995-30.81 19.734 8.464 8.736 18.943 15.562 30.798 19.726z" fill="#676fb2"/></g><g fill="#ffbf9d"><circle cx="58.526" cy="204.976" r="49.096"/><circle cx="453.474" cy="204.976" r="49.096"/></g><g><path d="m311.358 394.57c82.114-23.936 142.115-99.754 142.115-189.595 0-97.913-71.258-179.182-164.745-194.776-10.646-1.776-21.581-2.7-32.731-2.7-109.058.001-197.471 88.413-197.471 197.477 0 89.84 60.002 165.658 142.114 189.595 17.566 5.121 36.139 7.878 55.359 7.878 11.151 0 22.085-.928 32.731-2.707 7.702-1.289 15.254-3.022 22.628-5.172z" fill="#ffd4bd"/><path d="m123.987 204.976c0-97.911 71.262-179.18 164.742-194.776-10.646-1.776-21.581-2.7-32.731-2.7-109.059 0-197.472 88.413-197.472 197.476 0 89.84 60.002 165.658 142.114 189.595 17.566 5.121 36.139 7.878 55.359 7.878 11.151 0 22.085-.928 32.731-2.707-93.481-15.597-164.743-96.858-164.743-194.766z" fill="#ffbf9d"/></g><g fill="#ffbf9d"><ellipse cx="152.643" cy="258.359" rx="35" ry="27.5"/><ellipse cx="359.034" cy="258.359" rx="35" ry="27.5"/></g><circle cx="325.545" cy="485.5" fill="#88c5fd" r="15"/><g><path d="m453.474 204.963c-.003-40.011-11.904-77.246-32.36-108.35-9.094-13.827-19.882-26.439-32.062-37.552l-42.916 100.009c27.558 28.392 66.334 45.887 107.338 45.893z" fill="#d6948c"/><path d="m416.024 26.375c-12.709 8.308-26.176 15.529-40.279 21.561-24.99-19.083-54.676-32.341-87.016-37.736-10.646-1.776-21.581-2.7-32.731-2.7-56.313 0-107.124 23.575-143.098 61.392-33.694 35.42-54.373 83.335-54.374 136.081l179.208-.04c97.853-1.846 179.23-68.868 204.963-158.828 4.515-15.787-12.929-28.715-26.673-19.73z" fill="#ce857a"/><path d="m288.729 10.2c-10.646-1.776-21.581-2.7-32.731-2.7-56.313 0-107.124 23.575-143.098 61.392-33.694 35.42-54.373 83.335-54.374 136.081l108.342-.024c-8.58-12.938-11.116-28.939-7.085-43.931 10.076-37.477 32.778-69.92 63.745-92.151 20.257-14.542 44.041-24.722 70.137-29.075l55.054-9.185c-18.45-9.834-38.633-16.845-59.99-20.407z" fill="#c77464"/></g><g><path d="m186 222.981c-4.142 0-7.5 3.358-7.5 7.5v13.451c0 4.142 3.358 7.5 7.5 7.5s7.5-3.358 7.5-7.5v-13.451c0-4.142-3.358-7.5-7.5-7.5z"/><path d="m326 222.981c-4.142 0-7.5 3.358-7.5 7.5v13.451c0 4.142 3.358 7.5 7.5 7.5 4.143 0 7.5-3.358 7.5-7.5v-13.451c0-4.142-3.358-7.5-7.5-7.5z"/><path d="m279.383 237.877c-3.123-2.721-7.86-2.396-10.582.727-3.232 3.708-7.897 5.835-12.801 5.835s-9.569-2.127-12.801-5.835c-2.722-3.123-7.459-3.447-10.582-.727-3.123 2.722-3.448 7.459-.727 10.582 6.082 6.978 14.869 10.98 24.109 10.98s18.028-4.002 24.109-10.98c2.722-3.123 2.397-7.86-.725-10.582z"/><path d="m453.052 148.407c-5.237-18.278-13.024-35.794-23.225-52.08 8.503-15.221 15.285-31.398 20.08-48.16 2.933-10.253-.71-20.959-9.28-27.276-8.544-6.298-19.813-6.608-28.707-.793-11.259 7.36-23.026 13.778-35.19 19.222-35.222-25.739-76.867-39.32-120.732-39.32-49.434 0-97.178 17.843-134.438 50.243-3.125 2.718-3.456 7.456-.738 10.581 2.719 3.127 7.457 3.455 10.581.738 34.53-30.026 78.779-46.562 124.595-46.562 37.477 0 73.198 10.701 104.121 31.055-26.196 9.56-53.912 14.768-82.115 15.301-4.141.078-7.435 3.499-7.357 7.64s3.449 7.427 7.64 7.357c50.518-.953 99.565-16.064 141.839-43.7 5.495-3.593 10.267-.669 11.601.313 1.342.989 5.579 4.711 3.758 11.077-25.738 89.979-105.231 151.614-197.824 153.39l-171.479.039c1.676-42.334 17.484-83.059 44.953-115.403 2.681-3.157 2.295-7.89-.862-10.572-3.158-2.681-7.891-2.295-10.571.862-18.935 22.295-32.728 48.281-40.701 76.049-31.725-.249-57.071 25.388-57.071 56.568 0 31.081 25.167 56.582 56.623 56.581.139 0 .278-.012.417-.013 18.267 63.531 66.503 114.494 128.348 136.555-27.633 21.417-44.271 54.745-44.271 90.318v16.083c0 4.142 3.358 7.5 7.5 7.5h210.907c4.143 0 7.5-3.358 7.5-7.5v-16.084c0-9.031-1.061-18.032-3.153-26.754-.967-4.028-5.014-6.509-9.043-5.543-4.027.966-6.51 5.015-5.543 9.042 1.817 7.577 2.739 15.401 2.739 23.255v8.584h-9.078c2.011-3.368 3.171-7.3 3.171-11.5 0-12.407-10.094-22.5-22.5-22.5s-22.5 10.093-22.5 22.5c0 4.2 1.16 8.132 3.171 11.5h-148.17v-8.584c0-21.244 6.828-41.566 18.89-58.239 13.785 28.528 38.216 49.555 66.635 59.538 8.032 2.821 16.857 2.81 24.857 0 28.189-9.902 52.835-30.87 66.658-59.543 2.126 2.932 4.104 5.98 5.907 9.146 2.052 3.604 6.633 4.855 10.229 2.807 3.6-2.049 4.856-6.629 2.807-10.229-7.481-13.141-17.48-24.614-29.344-33.8 61.844-22.061 110.079-73.024 128.346-136.553.138.001.277.013.415.013 31.489 0 56.624-25.531 56.624-56.581-.002-31.285-25.446-56.788-57.02-56.568zm-127.507 329.593c4.136 0 7.5 3.364 7.5 7.5s-3.364 7.5-7.5 7.5-7.5-3.364-7.5-7.5 3.364-7.5 7.5-7.5zm95.475-367.185c15.084 26.373 23.567 55.906 24.794 86.425-28.251-1.575-55.578-11.791-78.442-29.315 21.174-15.867 39.19-35.174 53.648-57.11zm-404.09 94.161c0-21.635 16.742-39.879 38.348-41.471-2.804 13.563-4.253 27.455-4.253 41.471 0 14.202 1.454 28.071 4.218 41.467-21.588-1.611-38.313-19.837-38.313-41.467zm239.082 217.9c7.152 2.818 13.86 6.799 19.78 11.724-5.924 4.929-12.636 8.913-19.792 11.732-7.152-2.818-13.86-6.799-19.78-11.724 5.924-4.928 12.636-8.913 19.792-11.732zm30.264.954c-6.781-5.796-14.453-10.553-22.653-14.038 11.256-.414 22.285-1.73 33.011-3.896-2.565 6.435-6.049 12.473-10.358 17.934zm-60.541.009c-4.309-5.463-7.794-11.502-10.36-17.94 10.73 2.166 21.763 3.482 33.023 3.894-8.203 3.486-15.878 8.246-22.663 14.046zm37.721 51.724c-4.807 1.689-10.104 1.689-14.913 0-26.774-9.405-49.477-30.061-60.789-57.966 3.762-3.7 7.833-7.119 12.194-10.204 8.651 25.296 28.434 45.189 53.566 54.018 1.607.565 3.362.565 4.972 0 24.295-8.534 44.647-27.923 53.574-54.01 4.338 3.068 8.412 6.482 12.194 10.194-11.277 27.852-33.956 48.539-60.798 57.968zm-7.458-80.615c-102.24 0-185.86-81.188-189.811-182.477l171.549-.039c.046 0 .093 0 .14-.001 41.905-.79 81.825-13.02 116.649-35.552 26.205 21.337 58.181 33.723 91.297 35.386-3.847 101.385-87.512 182.683-189.824 182.683zm200.765-148.532c2.76-13.388 4.212-27.248 4.212-41.44 0-14.037-1.424-27.918-4.209-41.466 21.583 1.617 38.305 19.833 38.305 41.466-.001 21.559-16.521 39.707-38.308 41.44z"/></g></g></svg>